<?xml version="1.0" encoding="UTF-8" standalone="no"?>
<svg
   xmlns:dc="http://purl.org/dc/elements/1.1/"
   xmlns:cc="http://creativecommons.org/ns#"
   xmlns:rdf="http://www.w3.org/1999/02/22-rdf-syntax-ns#"
   xmlns:svg="http://www.w3.org/2000/svg"
   xmlns="http://www.w3.org/2000/svg"
   viewBox="0 0 162.90668 35.560001"
   height="35.560001"
   width="162.90668"
   xml:space="preserve"
   id="svg2"
   version="1.1"><metadata
     id="metadata8"><rdf:RDF><cc:Work
         rdf:about=""><dc:format>image/svg+xml</dc:format><dc:type
           rdf:resource="http://purl.org/dc/dcmitype/StillImage" /></cc:Work></rdf:RDF></metadata><defs
     id="defs6" /><g
     transform="matrix(1.3333333,0,0,-1.3333333,0,35.56)"
     id="g10"><g
       transform="scale(0.1)"
       id="g12"><path
         id="path14"
         style="fill:#231f20;fill-opacity:1;fill-rule:nonzero;stroke:none"
         d="m 674.691,63.6992 c 0,-9.4023 -4.589,-13.3867 -9.793,-13.3867 h -18 V 161.434 h 16.184 c 7.02,0 11.609,-5.805 11.609,-13.442 z M 700.602,204.176 H 575.414 V 0.769531 h 125.188 c 18.652,0 33.25,5.468749 33.25,27.792969 V 176.688 c -0.274,16.824 -14.598,27.488 -33.25,27.488 z m 302.868,-0.625 V 162.02 h 44.6 V 0.144531 H 1110 V 162.02 h 45.23 v 41.531 z M 852.055,58.9844 c 0,-4.6875 -0.176,-14 -6.707,-13.8633 L 829.273,45.043 c -7.109,0 -7.441,7.4023 -7.617,13.9414 l 0.157,144.2496 H 755.797 V 42.418 c 0,-39.58597 41.59,-42.273469 41.59,-42.273469 h 72.023 c 35.957,0 35.488,41.613269 35.488,41.613269 V 202.93 h -54.082 c 0.508,-83.797 1.239,-143.9456 1.239,-143.9456 z M 927.184,0.144531 h 63.464 V 202.93 H 927.184 Z M 280.355,79.0586 300.977,134.027 321.449,78.9219 Z m -121.64,65.2964 c 0,-7.32 -4.91,-13.437 -12.836,-13.757 h -21.656 v 95.879 h 21.656 c 7.926,0.609 12.496,-6.122 12.836,-14.094 z M 492.41,126.348 464.867,202.93 H 385.836 V 67.2188 L 333.305,202.93 h -63.153 c -8.957,37.41 -35.914,62.847 -84.601,63.816 L 0,266.453 V 0 h 118.395 v 86.9375 h 69.281 c 13.508,0.0742 25.722,2.3945 36.469,6.5859 L 186.484,0.144531 h 66.567 L 267.145,36.9961 330.57,36.8711 345.238,0.144531 h 98.028 V 76.2383 L 474.922,0.144531 h 74.277 V 202.93 H 492.41 v -76.582" /><path
         id="path16"
         style="fill:#231f20;fill-opacity:1;fill-rule:nonzero;stroke:none"
         d="m 1188.39,181.207 h 8.88 c 2.86,0 5.83,0.691 5.83,4.898 0,4.391 -3.18,4.75 -5.11,4.75 h -9.6 z m 0,-15.547 h -3.79 v 28.488 h 13.2 c 4.65,0 9.28,-1.601 9.28,-7.648 0,-4.219 -2.1,-5.707 -3.98,-6.906 1.64,-0.582 3.26,-1.324 3.38,-5.262 l 0.23,-5.176 c 0.06,-1.57 0.29,-2.168 1.46,-2.855 v -0.641 h -4.69 c -0.56,1.754 -0.7,6.07 -0.7,7.133 0,2.348 -0.42,5.078 -4.98,5.078 h -9.41 V 165.66" /><path
         id="path18"
         style="fill:#231f20;fill-opacity:1;fill-rule:nonzero;stroke:none"
         d="m 1196.33,205.379 c -14.01,0 -25.4,-11.453 -25.4,-25.473 0,-14.054 11.39,-25.476 25.4,-25.476 14.1,0 25.51,11.422 25.51,25.476 0,14.02 -11.41,25.473 -25.51,25.473 z m 21.17,-25.473 c 0,-11.699 -9.46,-21.183 -21.17,-21.183 -11.62,0 -21.17,9.484 -21.17,21.183 0,11.657 9.55,21.149 21.17,21.149 11.71,0 21.17,-9.492 21.17,-21.149" /></g></g></svg>